# xmcd
#
# Track frame offsets:
#	150
#	15217
#	34465
#	52855
#	70390
#	87232
#	103360
#	118725
#	138225
#	154427
#	175380
#	190885
#	207167
#	229162
#	249360
#	263575
#
# Disc length: 3753 seconds
#
# Revision: 2
# Processed by: cddbd v1.5.2PL0 Copyright (c) Steve Scherf et al.
# Submitted via: audiograbber 1.83.01
#
DISCID=dd0ea710
DTITLE=MH1091 Monster Hits - Female Country Hits of 2000 (MH)
DYEAR=2008
DGENRE=Karaoke
TTITLE0=Faith Hill - The Way You Love Me (MH)
TTITLE1=Lee Ann Womack - I Hope You Dance (MH)
TTITLE2=LeAnn Rimes - I Need You (MH)
TTITLE3=Chely Wright - It Was (MH)
TTITLE4=Sara Evans - Born to Fly (MH)
TTITLE5=Jo Dee Messina - That's The Way (MH)
TTITLE6=Shedaisy - This Woman Needs (MH)
TTITLE7=Shedaisy - Lucky 4 You (Tonight I'm Just Me) (MH)
TTITLE8=Patty Loveless - That's The Kind Of Mood I'm In (MH)
TTITLE9=Dixie Chicks - Cold Day In July (MH)
TTITLE10=Martina McBride - There You Are (MH)
TTITLE11=Dixie Chicks - Without You (MH)
TTITLE12=Jo Dee Messina - Burn (MH)
TTITLE13=LeeAnn Womack - Ashes By Now (MH)
TTITLE14=Terri clark - A Little Gasoline (MH)
TTITLE15=Jamie O'Neal - There Is no Airzona (MH)
EXTD=
EXTT0=
EXTT1=
EXTT2=
EXTT3=
EXTT4=
EXTT5=
EXTT6=
EXTT7=
EXTT8=
EXTT9=
EXTT10=
EXTT11=
EXTT12=
EXTT13=
EXTT14=
EXTT15=
PLAYORDER=
